# xmcd
# 
# Track frame offsets:
#     150
#     15324
#     31569
#     45779
#     59045
#     76544
#     95014
#     113266
#     133039
#     148564
#     170021
#     186590
#     210353
#     224282
#     244029
#     265668
# 
# Disc length: 3820
# 
# Revision: 0
# Processed by: cddbd v1.5.2PL0 Copyright (c) Steve Scherf et al.
# Submitted via: fre:ac v1.0.27
# 
DISCID=ca0eea10
DTITLE=John Denver - Just Like...
DYEAR=2003
DGENRE=Country
TTITLE0=Annie's Song
TTITLE1=Thank God I'm a Country Boy
TTITLE2=Country Roads
TTITLE3=Perhaps Love
TTITLE4=Fly Away
TTITLE5=Calypso
TTITLE6=Some Days are Diamonds
TTITLE7=Looking for Space
TTITLE8=I'm Sorry
TTITLE9=Back Home Again
TTITLE10=Like a Sad Song
TTITLE11=Sweet Surrender
TTITLE12=Shanghai Breezes
TTITLE13=My Sweet Lady
TTITLE14=Sunshine on my Shoulders
TTITLE15=Rocky Mountain High
EXTD=
EXTT0=
EXTT1=
EXTT2=
EXTT3=
EXTT4=
EXTT5=
EXTT6=
EXTT7=
EXTT8=
EXTT9=
EXTT10=
EXTT11=
EXTT12=
EXTT13=
EXTT14=
EXTT15=
PLAYORDER=
